<?xml version="1.0" encoding="UTF-8"?>
<score-partwise version="3.1">
  <part-list>
    <score-part id="P1">
      <part-name>Piano</part-name>
    </score-part>
  </part-list>
  <part id="P1">
    <measure number="1">
      <attributes>
        <divisions>1</divisions>
        <key><fifths>0</fifths></key>
        <time><beats>4</beats><beat-type>4</beat-type></time>
        <clef><sign>G</sign><line>2</line></clef>
      </attributes>
      <note><pitch><step>C</step><octave>4</octave></pitch><duration>1</duration><type>quarter</type></note>
      <note><pitch><step>D</step><octave>4</octave></pitch><duration>1</duration><type>quarter</type></note>
      <note><pitch><step>E</step><octave>4</octave></pitch><duration>1</duration><type>quarter</type></note>
      <note><pitch><step>F</step><octave>4</octave></pitch><duration>1</duration><type>quarter</type></note>
    </measure>
    <measure number="2">
      <attributes>
        <divisions>1</divisions>
        <key><fifths>0</fifths></key>
        <time><beats>4</beats><beat-type>4</beat-type></time>
        <clef><sign>G</sign><line>2</line></clef>
      </attributes>
      <note><pitch><step>C</step><octave>4</octave></pitch><duration>1</duration><type>quarter</type></note>
      <note><pitch><step>D</step><octave>4</octave></pitch><duration>1</duration><type>quarter</type></note>
      <note><pitch><step>E</step><octave>4</octave></pitch><duration>1</duration><type>quarter</type></note>
      <note><pitch><step>F</step><octave>4</octave></pitch><duration>1</duration><type>quarter</type></note>
    </measure>
    <measure number="3">
      <attributes>
        <divisions>1</divisions>
        <key><fifths>0</fifths></key>
        <time><beats>4</beats><beat-type>4</beat-type></time>
        <clef><sign>G</sign><line>2</line></clef>
      </attributes>
      <note><pitch><step>C</step><octave>4</octave></pitch><duration>1</duration><type>quarter</type></note>
      <note><pitch><step>D</step><octave>4</octave></pitch><duration>1</duration><type>quarter</type></note>
      <note><pitch><step>E</step><octave>4</octave></pitch><duration>1</duration><type>quarter</type></note>
      <note><pitch><step>F</step><octave>4</octave></pitch><duration>1</duration><type>quarter</type></note>
    </measure>
    <measure number="4">
      <attributes>
        <divisions>1</divisions>
        <key><fifths>0</fifths></key>
        <time><beats>4</beats><beat-type>4</beat-type></time>
        <clef><sign>G</sign><line>2</line></clef>
      </attributes>
      <note><pitch><step>C</step><octave>4</octave></pitch><duration>1</duration><type>quarter</type></note>
      <note><pitch><step>D</step><octave>4</octave></pitch><duration>1</duration><type>quarter</type></note>
      <note><pitch><step>E</step><octave>4</octave></pitch><duration>1</duration><type>quarter</type></note>
      <note><pitch><step>F</step><octave>4</octave></pitch><duration>1</duration><type>quarter</type></note>
    </measure>
    <measure number="5">
      <attributes>
        <divisions>1</divisions>
        <key><fifths>0</fifths></key>
        <time><beats>4</beats><beat-type>4</beat-type></time>
        <clef><sign>G</sign><line>2</line></clef>
      </attributes>
      <note><pitch><step>C</step><octave>4</octave></pitch><duration>1</duration><type>quarter</type></note>
      <note><pitch><step>D</step><octave>4</octave></pitch><duration>1</duration><type>quarter</type></note>
      <note><pitch><step>E</step><octave>4</octave></pitch><duration>1</duration><type>quarter</type></note>
      <note><pitch><step>F</step><octave>4</octave></pitch><duration>1</duration><type>quarter</type></note>
    </measure>
    <measure number="6">
      <attributes>
        <divisions>1</divisions>
        <key><fifths>0</fifths></key>
        <time><beats>4</beats><beat-type>4</beat-type></time>
        <clef><sign>G</sign><line>2</line></clef>
      </attributes>
      <note><pitch><step>C</step><octave>4</octave></pitch><duration>1</duration><type>quarter</type></note>
      <note><pitch><step>D</step><octave>4</octave></pitch><duration>1</duration><type>quarter</type></note>
      <note><pitch><step>E</step><octave>4</octave></pitch><duration>1</duration><type>quarter</type></note>
      <note><pitch><step>F</step><octave>4</octave></pitch><duration>1</duration><type>quarter</type></note>
    </measure>
    <measure number="7">
      <attributes>
        <divisions>1</divisions>
        <key><fifths>0</fifths></key>
        <time><beats>4</beats><beat-type>4</beat-type></time>
        <clef><sign>G</sign><line>2</line></clef>
      </attributes>
      <note><pitch><step>C</step><octave>4</octave></pitch><duration>1</duration><type>quarter</type></note>
      <note><pitch><step>D</step><octave>4</octave></pitch><duration>1</duration><type>quarter</type></note>
      <note><pitch><step>E</step><octave>4</octave></pitch><duration>1</duration><type>quarter</type></note>
      <note><pitch><step>F</step><octave>4</octave></pitch><duration>1</duration><type>quarter</type></note>
    </measure>
    <measure number="8">
      <attributes>
        <divisions>1</divisions>
        <key><fifths>0</fifths></key>
        <time><beats>4</beats><beat-type>4</beat-type></time>
        <clef><sign>G</sign><line>2</line></clef>
      </attributes>
      <note><pitch><step>C</step><octave>4</octave></pitch><duration>1</duration><type>quarter</type></note>
      <note><pitch><step>D</step><octave>4</octave></pitch><duration>1</duration><type>quarter</type></note>
      <note><pitch><step>E</step><octave>4</octave></pitch><duration>1</duration><type>quarter</type></note>
      <note><pitch><step>F</step><octave>4</octave></pitch><duration>1</duration><type>quarter</type></note>
    </measure>
    <measure number="9">
      <attributes>
        <divisions>1</divisions>
        <key><fifths>0</fifths></key>
        <time><beats>4</beats><beat-type>4</beat-type></time>
        <clef><sign>G</sign><line>2</line></clef>
      </attributes>
      <note><pitch><step>C</step><octave>4</octave></pitch><duration>1</duration><type>quarter</type></note>
      <note><pitch><step>D</step><octave>4</octave></pitch><duration>1</duration><type>quarter</type></note>
      <note><pitch><step>E</step><octave>4</octave></pitch><duration>1</duration><type>quarter</type></note>
      <note><pitch><step>F</step><octave>4</octave></pitch><duration>1</duration><type>quarter</type></note>
    </measure>
    <measure number="10">
      <attributes>
        <divisions>1</divisions>
        <key><fifths>0</fifths></key>
        <time><beats>4</beats><beat-type>4</beat-type></time>
        <clef><sign>G</sign><line>2</line></clef>
      </attributes>
      <note><pitch><step>C</step><octave>4</octave></pitch><duration>1</duration><type>quarter</type></note>
      <note><pitch><step>D</step><octave>4</octave></pitch><duration>1</duration><type>quarter</type></note>
      <note><pitch><step>E</step><octave>4</octave></pitch><duration>1</duration><type>quarter</type></note>
      <note><pitch><step>F</step><octave>4</octave></pitch><duration>1</duration><type>quarter</type></note>
    </measure>
    <measure number="11">
      <attributes>
        <divisions>1</divisions>
        <key><fifths>0</fifths></key>
        <time><beats>4</beats><beat-type>4</beat-type></time>
        <clef><sign>G</sign><line>2</line></clef>
      </attributes>
      <note><pitch><step>C</step><octave>4</octave></pitch><duration>1</duration><type>quarter</type></note>
      <note><pitch><step>D</step><octave>4</octave></pitch><duration>1</duration><type>quarter</type></note>
      <note><pitch><step>E</step><octave>4</octave></pitch><duration>1</duration><type>quarter</type></note>
      <note><pitch><step>F</step><octave>4</octave></pitch><duration>1</duration><type>quarter</type></note>
    </measure>
    <measure number="12">
      <attributes>
        <divisions>1</divisions>
        <key><fifths>0</fifths></key>
        <time><beats>4</beats><beat-type>4</beat-type></time>
        <clef><sign>G</sign><line>2</line></clef>
      </attributes>
      <note><pitch><step>C</step><octave>4</octave></pitch><duration>1</duration><type>quarter</type></note>
      <note><pitch><step>D</step><octave>4</octave></pitch><duration>1</duration><type>quarter</type></note>
      <note><pitch><step>E</step><octave>4</octave></pitch><duration>1</duration><type>quarter</type></note>
      <note><pitch><step>F</step><octave>4</octave></pitch><duration>1</duration><type>quarter</type></note>
    </measure>
    <measure number="13">
      <attributes>
        <divisions>1</divisions>
        <key><fifths>0</fifths></key>
        <time><beats>4</beats><beat-type>4</beat-type></time>
        <clef><sign>G</sign><line>2</line></clef>
      </attributes>
      <note><pitch><step>C</step><octave>4</octave></pitch><duration>1</duration><type>quarter</type></note>
      <note><pitch><step>D</step><octave>4</octave></pitch><duration>1</duration><type>quarter</type></note>
      <note><pitch><step>E</step><octave>4</octave></pitch><duration>1</duration><type>quarter</type></note>
      <note><pitch><step>F</step><octave>4</octave></pitch><duration>1</duration><type>quarter</type></note>
    </measure>
    <measure number="14">
      <attributes>
        <divisions>1</divisions>
        <key><fifths>0</fifths></key>
        <time><beats>4</beats><beat-type>4</beat-type></time>
        <clef><sign>G</sign><line>2</line></clef>
      </attributes>
      <note><pitch><step>C</step><octave>4</octave></pitch><duration>1</duration><type>quarter</type></note>
      <note><pitch><step>D</step><octave>4</octave></pitch><duration>1</duration><type>quarter</type></note>
      <note><pitch><step>E</step><octave>4</octave></pitch><duration>1</duration><type>quarter</type></note>
      <note><pitch><step>F</step><octave>4</octave></pitch><duration>1</duration><type>quarter</type></note>
    </measure>
    <measure number="15">
      <attributes>
        <divisions>1</divisions>
        <key><fifths>0</fifths></key>
        <time><beats>4</beats><beat-type>4</beat-type></time>
        <clef><sign>G</sign><line>2</line></clef>
      </attributes>
      <note><pitch><step>C</step><octave>4</octave></pitch><duration>1</duration><type>quarter</type></note>
      <note><pitch><step>D</step><octave>4</octave></pitch><duration>1</duration><type>quarter</type></note>
      <note><pitch><step>E</step><octave>4</octave></pitch><duration>1</duration><type>quarter</type></note>
      <note><pitch><step>F</step><octave>4</octave></pitch><duration>1</duration><type>quarter</type></note>
    </measure>
    <measure number="16">
      <attributes>
        <divisions>1</divisions>
        <key><fifths>0</fifths></key>
        <time><beats>4</beats><beat-type>4</beat-type></time>
        <clef><sign>G</sign><line>2</line></clef>
      </attributes>
      <note><pitch><step>C</step><octave>4</octave></pitch><duration>1</duration><type>quarter</type></note>
      <note><pitch><step>D</step><octave>4</octave></pitch><duration>1</duration><type>quarter</type></note>
      <note><pitch><step>E</step><octave>4</octave></pitch><duration>1</duration><type>quarter</type></note>
      <note><pitch><step>F</step><octave>4</octave></pitch><duration>1</duration><type>quarter</type></note>
    </measure>
    <measure number="17">
      <attributes>
        <divisions>1</divisions>
        <key><fifths>0</fifths></key>
        <time><beats>4</beats><beat-type>4</beat-type></time>
        <clef><sign>G</sign><line>2</line></clef>
      </attributes>
      <note><pitch><step>C</step><octave>4</octave></pitch><duration>1</duration><type>quarter</type></note>
      <note><pitch><step>D</step><octave>4</octave></pitch><duration>1</duration><type>quarter</type></note>
      <note><pitch><step>E</step><octave>4</octave></pitch><duration>1</duration><type>quarter</type></note>
      <note><pitch><step>F</step><octave>4</octave></pitch><duration>1</duration><type>quarter</type></note>
    </measure>
    <measure number="18">
      <attributes>
        <divisions>1</divisions>
        <key><fifths>0</fifths></key>
        <time><beats>4</beats><beat-type>4</beat-type></time>
        <clef><sign>G</sign><line>2</line></clef>
      </attributes>
      <note><pitch><step>C</step><octave>4</octave></pitch><duration>1</duration><type>quarter</type></note>
      <note><pitch><step>D</step><octave>4</octave></pitch><duration>1</duration><type>quarter</type></note>
      <note><pitch><step>E</step><octave>4</octave></pitch><duration>1</duration><type>quarter</type></note>
      <note><pitch><step>F</step><octave>4</octave></pitch><duration>1</duration><type>quarter</type></note>
    </measure>
    <measure number="19">
      <attributes>
        <divisions>1</divisions>
        <key><fifths>0</fifths></key>
        <time><beats>4</beats><beat-type>4</beat-type></time>
        <clef><sign>G</sign><line>2</line></clef>
      </attributes>
      <note><pitch><step>C</step><octave>4</octave></pitch><duration>1</duration><type>quarter</type></note>
      <note><pitch><step>D</step><octave>4</octave></pitch><duration>1</duration><type>quarter</type></note>
      <note><pitch><step>E</step><octave>4</octave></pitch><duration>1</duration><type>quarter</type></note>
      <note><pitch><step>F</step><octave>4</octave></pitch><duration>1</duration><type>quarter</type></note>
    </measure>
    <measure number="20">
      <attributes>
        <divisions>1</divisions>
        <key><fifths>0</fifths></key>
        <time><beats>4</beats><beat-type>4</beat-type></time>
        <clef><sign>G</sign><line>2</line></clef>
      </attributes>
      <note><pitch><step>C</step><octave>4</octave></pitch><duration>1</duration><type>quarter</type></note>
      <note><pitch><step>D</step><octave>4</octave></pitch><duration>1</duration><type>quarter</type></note>
      <note><pitch><step>E</step><octave>4</octave></pitch><duration>1</duration><type>quarter</type></note>
      <note><pitch><step>F</step><octave>4</octave></pitch><duration>1</duration><type>quarter</type></note>
    </measure>
    <measure number="21">
      <attributes>
        <divisions>1</divisions>
        <key><fifths>0</fifths></key>
        <time><beats>4</beats><beat-type>4</beat-type></time>
        <clef><sign>G</sign><line>2</line></clef>
      </attributes>
      <note><pitch><step>C</step><octave>4</octave></pitch><duration>1</duration><type>quarter</type></note>
      <note><pitch><step>D</step><octave>4</octave></pitch><duration>1</duration><type>quarter</type></note>
      <note><pitch><step>E</step><octave>4</octave></pitch><duration>1</duration><type>quarter</type></note>
      <note><pitch><step>F</step><octave>4</octave></pitch><duration>1</duration><type>quarter</type></note>
    </measure>
    <measure number="22">
      <attributes>
        <divisions>1</divisions>
        <key><fifths>0</fifths></key>
        <time><beats>4</beats><beat-type>4</beat-type></time>
        <clef><sign>G</sign><line>2</line></clef>
      </attributes>
      <note><pitch><step>C</step><octave>4</octave></pitch><duration>1</duration><type>quarter</type></note>
      <note><pitch><step>D</step><octave>4</octave></pitch><duration>1</duration><type>quarter</type></note>
      <note><pitch><step>E</step><octave>4</octave></pitch><duration>1</duration><type>quarter</type></note>
      <note><pitch><step>F</step><octave>4</octave></pitch><duration>1</duration><type>quarter</type></note>
    </measure>
    <measure number="23">
      <attributes>
        <divisions>1</divisions>
        <key><fifths>0</fifths></key>
        <time><beats>4</beats><beat-type>4</beat-type></time>
        <clef><sign>G</sign><line>2</line></clef>
      </attributes>
      <note><pitch><step>C</step><octave>4</octave></pitch><duration>1</duration><type>quarter</type></note>
      <note><pitch><step>D</step><octave>4</octave></pitch><duration>1</duration><type>quarter</type></note>
      <note><pitch><step>E</step><octave>4</octave></pitch><duration>1</duration><type>quarter</type></note>
      <note><pitch><step>F</step><octave>4</octave></pitch><duration>1</duration><type>quarter</type></note>
    </measure>
    <measure number="24">
      <attributes>
        <divisions>1</divisions>
        <key><fifths>0</fifths></key>
        <time><beats>4</beats><beat-type>4</beat-type></time>
        <clef><sign>G</sign><line>2</line></clef>
      </attributes>
      <note><pitch><step>C</step><octave>4</octave></pitch><duration>1</duration><type>quarter</type></note>
      <note><pitch><step>D</step><octave>4</octave></pitch><duration>1</duration><type>quarter</type></note>
      <note><pitch><step>E</step><octave>4</octave></pitch><duration>1</duration><type>quarter</type></note>
      <note><pitch><step>F</step><octave>4</octave></pitch><duration>1</duration><type>quarter</type></note>
    </measure>
    <measure number="25">
      <attributes>
        <divisions>1</divisions>
        <key><fifths>0</fifths></key>
        <time><beats>4</beats><beat-type>4</beat-type></time>
        <clef><sign>G</sign><line>2</line></clef>
      </attributes>
      <note><pitch><step>C</step><octave>4</octave></pitch><duration>1</duration><type>quarter</type></note>
      <note><pitch><step>D</step><octave>4</octave></pitch><duration>1</duration><type>quarter</type></note>
      <note><pitch><step>E</step><octave>4</octave></pitch><duration>1</duration><type>quarter</type></note>
      <note><pitch><step>F</step><octave>4</octave></pitch><duration>1</duration><type>quarter</type></note>
    </measure>
    <measure number="26">
      <attributes>
        <divisions>1</divisions>
        <key><fifths>0</fifths></key>
        <time><beats>4</beats><beat-type>4</beat-type></time>
        <clef><sign>G</sign><line>2</line></clef>
      </attributes>
      <note><pitch><step>C</step><octave>4</octave></pitch><duration>1</duration><type>quarter</type></note>
      <note><pitch><step>D</step><octave>4</octave></pitch><duration>1</duration><type>quarter</type></note>
      <note><pitch><step>E</step><octave>4</octave></pitch><duration>1</duration><type>quarter</type></note>
      <note><pitch><step>F</step><octave>4</octave></pitch><duration>1</duration><type>quarter</type></note>
    </measure>
    <measure number="27">
      <attributes>
        <divisions>1</divisions>
        <key><fifths>0</fifths></key>
        <time><beats>4</beats><beat-type>4</beat-type></time>
        <clef><sign>G</sign><line>2</line></clef>
      </attributes>
      <note><pitch><step>C</step><octave>4</octave></pitch><duration>1</duration><type>quarter</type></note>
      <note><pitch><step>D</step><octave>4</octave></pitch><duration>1</duration><type>quarter</type></note>
      <note><pitch><step>E</step><octave>4</octave></pitch><duration>1</duration><type>quarter</type></note>
      <note><pitch><step>F</step><octave>4</octave></pitch><duration>1</duration><type>quarter</type></note>
    </measure>
    <measure number="28">
      <attributes>
        <divisions>1</divisions>
        <key><fifths>0</fifths></key>
        <time><beats>4</beats><beat-type>4</beat-type></time>
        <clef><sign>G</sign><line>2</line></clef>
      </attributes>
      <note><pitch><step>C</step><octave>4</octave></pitch><duration>1</duration><type>quarter</type></note>
      <note><pitch><step>D</step><octave>4</octave></pitch><duration>1</duration><type>quarter</type></note>
      <note><pitch><step>E</step><octave>4</octave></pitch><duration>1</duration><type>quarter</type></note>
      <note><pitch><step>F</step><octave>4</octave></pitch><duration>1</duration><type>quarter</type></note>
    </measure>
    <measure number="29">
      <attributes>
        <divisions>1</divisions>
        <key><fifths>0</fifths></key>
        <time><beats>4</beats><beat-type>4</beat-type></time>
        <clef><sign>G</sign><line>2</line></clef>
      </attributes>
      <note><pitch><step>C</step><octave>4</octave></pitch><duration>1</duration><type>quarter</type></note>
      <note><pitch><step>D</step><octave>4</octave></pitch><duration>1</duration><type>quarter</type></note>
      <note><pitch><step>E</step><octave>4</octave></pitch><duration>1</duration><type>quarter</type></note>
      <note><pitch><step>F</step><octave>4</octave></pitch><duration>1</duration><type>quarter</type></note>
    </measure>
    <measure number="30">
      <attributes>
        <divisions>1</divisions>
        <key><fifths>0</fifths></key>
        <time><beats>4</beats><beat-type>4</beat-type></time>
        <clef><sign>G</sign><line>2</line></clef>
      </attributes>
      <note><pitch><step>C</step><octave>4</octave></pitch><duration>1</duration><type>quarter</type></note>
      <note><pitch><step>D</step><octave>4</octave></pitch><duration>1</duration><type>quarter</type></note>
      <note><pitch><step>E</step><octave>4</octave></pitch><duration>1</duration><type>quarter</type></note>
      <note><pitch><step>F</step><octave>4</octave></pitch><duration>1</duration><type>quarter</type></note>
    </measure>
    <measure number="31">
      <attributes>
        <divisions>1</divisions>
        <key><fifths>0</fifths></key>
        <time><beats>4</beats><beat-type>4</beat-type></time>
        <clef><sign>G</sign><line>2</line></clef>
      </attributes>
      <note><pitch><step>C</step><octave>4</octave></pitch><duration>1</duration><type>quarter</type></note>
      <note><pitch><step>D</step><octave>4</octave></pitch><duration>1</duration><type>quarter</type></note>
      <note><pitch><step>E</step><octave>4</octave></pitch><duration>1</duration><type>quarter</type></note>
      <note><pitch><step>F</step><octave>4</octave></pitch><duration>1</duration><type>quarter</type></note>
    </measure>
    <measure number="32">
      <attributes>
        <divisions>1</divisions>
        <key><fifths>0</fifths></key>
        <time><beats>4</beats><beat-type>4</beat-type></time>
        <clef><sign>G</sign><line>2</line></clef>
      </attributes>
      <note><pitch><step>C</step><octave>4</octave></pitch><duration>1</duration><type>quarter</type></note>
      <note><pitch><step>D</step><octave>4</octave></pitch><duration>1</duration><type>quarter</type></note>
      <note><pitch><step>E</step><octave>4</octave></pitch><duration>1</duration><type>quarter</type></note>
      <note><pitch><step>F</step><octave>4</octave></pitch><duration>1</duration><type>quarter</type></note>
    </measure>
    <measure number="33">
      <attributes>
        <divisions>1</divisions>
        <key><fifths>0</fifths></key>
        <time><beats>4</beats><beat-type>4</beat-type></time>
        <clef><sign>G</sign><line>2</line></clef>
      </attributes>
      <note><pitch><step>C</step><octave>4</octave></pitch><duration>1</duration><type>quarter</type></note>
      <note><pitch><step>D</step><octave>4</octave></pitch><duration>1</duration><type>quarter</type></note>
      <note><pitch><step>E</step><octave>4</octave></pitch><duration>1</duration><type>quarter</type></note>
      <note><pitch><step>F</step><octave>4</octave></pitch><duration>1</duration><type>quarter</type></note>
    </measure>
    <measure number="34">
      <attributes>
        <divisions>1</divisions>
        <key><fifths>0</fifths></key>
        <time><beats>4</beats><beat-type>4</beat-type></time>
        <clef><sign>G</sign><line>2</line></clef>
      </attributes>
      <note><pitch><step>C</step><octave>4</octave></pitch><duration>1</duration><type>quarter</type></note>
      <note><pitch><step>D</step><octave>4</octave></pitch><duration>1</duration><type>quarter</type></note>
      <note><pitch><step>E</step><octave>4</octave></pitch><duration>1</duration><type>quarter</type></note>
      <note><pitch><step>F</step><octave>4</octave></pitch><duration>1</duration><type>quarter</type></note>
    </measure>
    <measure number="35">
      <attributes>
        <divisions>1</divisions>
        <key><fifths>0</fifths></key>
        <time><beats>4</beats><beat-type>4</beat-type></time>
        <clef><sign>G</sign><line>2</line></clef>
      </attributes>
      <note><pitch><step>C</step><octave>4</octave></pitch><duration>1</duration><type>quarter</type></note>
      <note><pitch><step>D</step><octave>4</octave></pitch><duration>1</duration><type>quarter</type></note>
      <note><pitch><step>E</step><octave>4</octave></pitch><duration>1</duration><type>quarter</type></note>
      <note><pitch><step>F</step><octave>4</octave></pitch><duration>1</duration><type>quarter</type></note>
    </measure>
    <measure number="36">
      <attributes>
        <divisions>1</divisions>
        <key><fifths>0</fifths></key>
        <time><beats>4</beats><beat-type>4</beat-type></time>
        <clef><sign>G</sign><line>2</line></clef>
      </attributes>
      <note><pitch><step>C</step><octave>4</octave></pitch><duration>1</duration><type>quarter</type></note>
      <note><pitch><step>D</step><octave>4</octave></pitch><duration>1</duration><type>quarter</type></note>
      <note><pitch><step>E</step><octave>4</octave></pitch><duration>1</duration><type>quarter</type></note>
      <note><pitch><step>F</step><octave>4</octave></pitch><duration>1</duration><type>quarter</type></note>
    </measure>
    <measure number="37">
      <attributes>
        <divisions>1</divisions>
        <key><fifths>0</fifths></key>
        <time><beats>4</beats><beat-type>4</beat-type></time>
        <clef><sign>G</sign><line>2</line></clef>
      </attributes>
      <note><pitch><step>C</step><octave>4</octave></pitch><duration>1</duration><type>quarter</type></note>
      <note><pitch><step>D</step><octave>4</octave></pitch><duration>1</duration><type>quarter</type></note>
      <note><pitch><step>E</step><octave>4</octave></pitch><duration>1</duration><type>quarter</type></note>
      <note><pitch><step>F</step><octave>4</octave></pitch><duration>1</duration><type>quarter</type></note>
    </measure>
    <measure number="38">
      <attributes>
        <divisions>1</divisions>
        <key><fifths>0</fifths></key>
        <time><beats>4</beats><beat-type>4</beat-type></time>
        <clef><sign>G</sign><line>2</line></clef>
      </attributes>
      <note><pitch><step>C</step><octave>4</octave></pitch><duration>1</duration><type>quarter</type></note>
      <note><pitch><step>D</step><octave>4</octave></pitch><duration>1</duration><type>quarter</type></note>
      <note><pitch><step>E</step><octave>4</octave></pitch><duration>1</duration><type>quarter</type></note>
      <note><pitch><step>F</step><octave>4</octave></pitch><duration>1</duration><type>quarter</type></note>
    </measure>
    <measure number="39">
      <attributes>
        <divisions>1</divisions>
        <key><fifths>0</fifths></key>
        <time><beats>4</beats><beat-type>4</beat-type></time>
        <clef><sign>G</sign><line>2</line></clef>
      </attributes>
      <note><pitch><step>C</step><octave>4</octave></pitch><duration>1</duration><type>quarter</type></note>
      <note><pitch><step>D</step><octave>4</octave></pitch><duration>1</duration><type>quarter</type></note>
      <note><pitch><step>E</step><octave>4</octave></pitch><duration>1</duration><type>quarter</type></note>
      <note><pitch><step>F</step><octave>4</octave></pitch><duration>1</duration><type>quarter</type></note>
    </measure>
    <measure number="40">
      <attributes>
        <divisions>1</divisions>
        <key><fifths>0</fifths></key>
        <time><beats>4</beats><beat-type>4</beat-type></time>
        <clef><sign>G</sign><line>2</line></clef>
      </attributes>
      <note><pitch><step>C</step><octave>4</octave></pitch><duration>1</duration><type>quarter</type></note>
      <note><pitch><step>D</step><octave>4</octave></pitch><duration>1</duration><type>quarter</type></note>
      <note><pitch><step>E</step><octave>4</octave></pitch><duration>1</duration><type>quarter</type></note>
      <note><pitch><step>F</step><octave>4</octave></pitch><duration>1</duration><type>quarter</type></note>
    </measure>
    <measure number="41">
      <attributes>
        <divisions>1</divisions>
        <key><fifths>0</fifths></key>
        <time><beats>4</beats><beat-type>4</beat-type></time>
        <clef><sign>G</sign><line>2</line></clef>
      </attributes>
      <note><pitch><step>C</step><octave>4</octave></pitch><duration>1</duration><type>quarter</type></note>
      <note><pitch><step>D</step><octave>4</octave></pitch><duration>1</duration><type>quarter</type></note>
      <note><pitch><step>E</step><octave>4</octave></pitch><duration>1</duration><type>quarter</type></note>
      <note><pitch><step>F</step><octave>4</octave></pitch><duration>1</duration><type>quarter</type></note>
    </measure>
    <measure number="42">
      <attributes>
        <divisions>1</divisions>
        <key><fifths>0</fifths></key>
        <time><beats>4</beats><beat-type>4</beat-type></time>
        <clef><sign>G</sign><line>2</line></clef>
      </attributes>
      <note><pitch><step>C</step><octave>4</octave></pitch><duration>1</duration><type>quarter</type></note>
      <note><pitch><step>D</step><octave>4</octave></pitch><duration>1</duration><type>quarter</type></note>
      <note><pitch><step>E</step><octave>4</octave></pitch><duration>1</duration><type>quarter</type></note>
      <note><pitch><step>F</step><octave>4</octave></pitch><duration>1</duration><type>quarter</type></note>
    </measure>
    <measure number="43">
      <attributes>
        <divisions>1</divisions>
        <key><fifths>0</fifths></key>
        <time><beats>4</beats><beat-type>4</beat-type></time>
        <clef><sign>G</sign><line>2</line></clef>
      </attributes>
      <note><pitch><step>C</step><octave>4</octave></pitch><duration>1</duration><type>quarter</type></note>
      <note><pitch><step>D</step><octave>4</octave></pitch><duration>1</duration><type>quarter</type></note>
      <note><pitch><step>E</step><octave>4</octave></pitch><duration>1</duration><type>quarter</type></note>
      <note><pitch><step>F</step><octave>4</octave></pitch><duration>1</duration><type>quarter</type></note>
    </measure>
    <measure number="44">
      <attributes>
        <divisions>1</divisions>
        <key><fifths>0</fifths></key>
        <time><beats>4</beats><beat-type>4</beat-type></time>
        <clef><sign>G</sign><line>2</line></clef>
      </attributes>
      <note><pitch><step>C</step><octave>4</octave></pitch><duration>1</duration><type>quarter</type></note>
      <note><pitch><step>D</step><octave>4</octave></pitch><duration>1</duration><type>quarter</type></note>
      <note><pitch><step>E</step><octave>4</octave></pitch><duration>1</duration><type>quarter</type></note>
      <note><pitch><step>F</step><octave>4</octave></pitch><duration>1</duration><type>quarter</type></note>
    </measure>
    <measure number="45">
      <attributes>
        <divisions>1</divisions>
        <key><fifths>0</fifths></key>
        <time><beats>4</beats><beat-type>4</beat-type></time>
        <clef><sign>G</sign><line>2</line></clef>
      </attributes>
      <note><pitch><step>C</step><octave>4</octave></pitch><duration>1</duration><type>quarter</type></note>
      <note><pitch><step>D</step><octave>4</octave></pitch><duration>1</duration><type>quarter</type></note>
      <note><pitch><step>E</step><octave>4</octave></pitch><duration>1</duration><type>quarter</type></note>
      <note><pitch><step>F</step><octave>4</octave></pitch><duration>1</duration><type>quarter</type></note>
    </measure>
    <measure number="46">
      <attributes>
        <divisions>1</divisions>
        <key><fifths>0</fifths></key>
        <time><beats>4</beats><beat-type>4</beat-type></time>
        <clef><sign>G</sign><line>2</line></clef>
      </attributes>
      <note><pitch><step>C</step><octave>4</octave></pitch><duration>1</duration><type>quarter</type></note>
      <note><pitch><step>D</step><octave>4</octave></pitch><duration>1</duration><type>quarter</type></note>
      <note><pitch><step>E</step><octave>4</octave></pitch><duration>1</duration><type>quarter</type></note>
      <note><pitch><step>F</step><octave>4</octave></pitch><duration>1</duration><type>quarter</type></note>
    </measure>
    <measure number="47">
      <attributes>
        <divisions>1</divisions>
        <key><fifths>0</fifths></key>
        <time><beats>4</beats><beat-type>4</beat-type></time>
        <clef><sign>G</sign><line>2</line></clef>
      </attributes>
      <note><pitch><step>C</step><octave>4</octave></pitch><duration>1</duration><type>quarter</type></note>
      <note><pitch><step>D</step><octave>4</octave></pitch><duration>1</duration><type>quarter</type></note>
      <note><pitch><step>E</step><octave>4</octave></pitch><duration>1</duration><type>quarter</type></note>
      <note><pitch><step>F</step><octave>4</octave></pitch><duration>1</duration><type>quarter</type></note>
    </measure>
    <measure number="48">
      <attributes>
        <divisions>1</divisions>
        <key><fifths>0</fifths></key>
        <time><beats>4</beats><beat-type>4</beat-type></time>
        <clef><sign>G</sign><line>2</line></clef>
      </attributes>
      <note><pitch><step>C</step><octave>4</octave></pitch><duration>1</duration><type>quarter</type></note>
      <note><pitch><step>D</step><octave>4</octave></pitch><duration>1</duration><type>quarter</type></note>
      <note><pitch><step>E</step><octave>4</octave></pitch><duration>1</duration><type>quarter</type></note>
      <note><pitch><step>F</step><octave>4</octave></pitch><duration>1</duration><type>quarter</type></note>
    </measure>
    <measure number="49">
      <attributes>
        <divisions>1</divisions>
        <key><fifths>0</fifths></key>
        <time><beats>4</beats><beat-type>4</beat-type></time>
        <clef><sign>G</sign><line>2</line></clef>
      </attributes>
      <note><pitch><step>C</step><octave>4</octave></pitch><duration>1</duration><type>quarter</type></note>
      <note><pitch><step>D</step><octave>4</octave></pitch><duration>1</duration><type>quarter</type></note>
      <note><pitch><step>E</step><octave>4</octave></pitch><duration>1</duration><type>quarter</type></note>
      <note><pitch><step>F</step><octave>4</octave></pitch><duration>1</duration><type>quarter</type></note>
    </measure>
    <measure number="50">
      <attributes>
        <divisions>1</divisions>
        <key><fifths>0</fifths></key>
        <time><beats>4</beats><beat-type>4</beat-type></time>
        <clef><sign>G</sign><line>2</line></clef>
      </attributes>
      <note><pitch><step>C</step><octave>4</octave></pitch><duration>1</duration><type>quarter</type></note>
      <note><pitch><step>D</step><octave>4</octave></pitch><duration>1</duration><type>quarter</type></note>
      <note><pitch><step>E</step><octave>4</octave></pitch><duration>1</duration><type>quarter</type></note>
      <note><pitch><step>F</step><octave>4</octave></pitch><duration>1</duration><type>quarter</type></note>
    </measure>
    <measure number="51">
      <attributes>
        <divisions>1</divisions>
        <key><fifths>0</fifths></key>
        <time><beats>4</beats><beat-type>4</beat-type></time>
        <clef><sign>G</sign><line>2</line></clef>
      </attributes>
      <note><pitch><step>C</step><octave>4</octave></pitch><duration>1</duration><type>quarter</type></note>
      <note><pitch><step>D</step><octave>4</octave></pitch><duration>1</duration><type>quarter</type></note>
      <note><pitch><step>E</step><octave>4</octave></pitch><duration>1</duration><type>quarter</type></note>
      <note><pitch><step>F</step><octave>4</octave></pitch><duration>1</duration><type>quarter</type></note>
    </measure>
    <measure number="52">
      <attributes>
        <divisions>1</divisions>
        <key><fifths>0</fifths></key>
        <time><beats>4</beats><beat-type>4</beat-type></time>
        <clef><sign>G</sign><line>2</line></clef>
      </attributes>
      <note><pitch><step>C</step><octave>4</octave></pitch><duration>1</duration><type>quarter</type></note>
      <note><pitch><step>D</step><octave>4</octave></pitch><duration>1</duration><type>quarter</type></note>
      <note><pitch><step>E</step><octave>4</octave></pitch><duration>1</duration><type>quarter</type></note>
      <note><pitch><step>F</step><octave>4</octave></pitch><duration>1</duration><type>quarter</type></note>
    </measure>
    <measure number="53">
      <attributes>
        <divisions>1</divisions>
        <key><fifths>0</fifths></key>
        <time><beats>4</beats><beat-type>4</beat-type></time>
        <clef><sign>G</sign><line>2</line></clef>
      </attributes>
      <note><pitch><step>C</step><octave>4</octave></pitch><duration>1</duration><type>quarter</type></note>
      <note><pitch><step>D</step><octave>4</octave></pitch><duration>1</duration><type>quarter</type></note>
      <note><pitch><step>E</step><octave>4</octave></pitch><duration>1</duration><type>quarter</type></note>
      <note><pitch><step>F</step><octave>4</octave></pitch><duration>1</duration><type>quarter</type></note>
    </measure>
    <measure number="54">
      <attributes>
        <divisions>1</divisions>
        <key><fifths>0</fifths></key>
        <time><beats>4</beats><beat-type>4</beat-type></time>
        <clef><sign>G</sign><line>2</line></clef>
      </attributes>
      <note><pitch><step>C</step><octave>4</octave></pitch><duration>1</duration><type>quarter</type></note>
      <note><pitch><step>D</step><octave>4</octave></pitch><duration>1</duration><type>quarter</type></note>
      <note><pitch><step>E</step><octave>4</octave></pitch><duration>1</duration><type>quarter</type></note>
      <note><pitch><step>F</step><octave>4</octave></pitch><duration>1</duration><type>quarter</type></note>
    </measure>
    <measure number="55">
      <attributes>
        <divisions>1</divisions>
        <key><fifths>0</fifths></key>
        <time><beats>4</beats><beat-type>4</beat-type></time>
        <clef><sign>G</sign><line>2</line></clef>
      </attributes>
      <note><pitch><step>C</step><octave>4</octave></pitch><duration>1</duration><type>quarter</type></note>
      <note><pitch><step>D</step><octave>4</octave></pitch><duration>1</duration><type>quarter</type></note>
      <note><pitch><step>E</step><octave>4</octave></pitch><duration>1</duration><type>quarter</type></note>
      <note><pitch><step>F</step><octave>4</octave></pitch><duration>1</duration><type>quarter</type></note>
    </measure>
    <measure number="56">
      <attributes>
        <divisions>1</divisions>
        <key><fifths>0</fifths></key>
        <time><beats>4</beats><beat-type>4</beat-type></time>
        <clef><sign>G</sign><line>2</line></clef>
      </attributes>
      <note><pitch><step>C</step><octave>4</octave></pitch><duration>1</duration><type>quarter</type></note>
      <note><pitch><step>D</step><octave>4</octave></pitch><duration>1</duration><type>quarter</type></note>
      <note><pitch><step>E</step><octave>4</octave></pitch><duration>1</duration><type>quarter</type></note>
      <note><pitch><step>F</step><octave>4</octave></pitch><duration>1</duration><type>quarter</type></note>
    </measure>
    <measure number="57">
      <attributes>
        <divisions>1</divisions>
        <key><fifths>0</fifths></key>
        <time><beats>4</beats><beat-type>4</beat-type></time>
        <clef><sign>G</sign><line>2</line></clef>
      </attributes>
      <note><pitch><step>C</step><octave>4</octave></pitch><duration>1</duration><type>quarter</type></note>
      <note><pitch><step>D</step><octave>4</octave></pitch><duration>1</duration><type>quarter</type></note>
      <note><pitch><step>E</step><octave>4</octave></pitch><duration>1</duration><type>quarter</type></note>
      <note><pitch><step>F</step><octave>4</octave></pitch><duration>1</duration><type>quarter</type></note>
    </measure>
    <measure number="58">
      <attributes>
        <divisions>1</divisions>
        <key><fifths>0</fifths></key>
        <time><beats>4</beats><beat-type>4</beat-type></time>
        <clef><sign>G</sign><line>2</line></clef>
      </attributes>
      <note><pitch><step>C</step><octave>4</octave></pitch><duration>1</duration><type>quarter</type></note>
      <note><pitch><step>D</step><octave>4</octave></pitch><duration>1</duration><type>quarter</type></note>
      <note><pitch><step>E</step><octave>4</octave></pitch><duration>1</duration><type>quarter</type></note>
      <note><pitch><step>F</step><octave>4</octave></pitch><duration>1</duration><type>quarter</type></note>
    </measure>
    <measure number="59">
      <attributes>
        <divisions>1</divisions>
        <key><fifths>0</fifths></key>
        <time><beats>4</beats><beat-type>4</beat-type></time>
        <clef><sign>G</sign><line>2</line></clef>
      </attributes>
      <note><pitch><step>C</step><octave>4</octave></pitch><duration>1</duration><type>quarter</type></note>
      <note><pitch><step>D</step><octave>4</octave></pitch><duration>1</duration><type>quarter</type></note>
      <note><pitch><step>E</step><octave>4</octave></pitch><duration>1</duration><type>quarter</type></note>
      <note><pitch><step>F</step><octave>4</octave></pitch><duration>1</duration><type>quarter</type></note>
    </measure>
    <measure number="60">
      <attributes>
        <divisions>1</divisions>
        <key><fifths>0</fifths></key>
        <time><beats>4</beats><beat-type>4</beat-type></time>
        <clef><sign>G</sign><line>2</line></clef>
      </attributes>
      <note><pitch><step>C</step><octave>4</octave></pitch><duration>1</duration><type>quarter</type></note>
      <note><pitch><step>D</step><octave>4</octave></pitch><duration>1</duration><type>quarter</type></note>
      <note><pitch><step>E</step><octave>4</octave></pitch><duration>1</duration><type>quarter</type></note>
      <note><pitch><step>F</step><octave>4</octave></pitch><duration>1</duration><type>quarter</type></note>
    </measure>
    <measure number="61">
      <attributes>
        <divisions>1</divisions>
        <key><fifths>0</fifths></key>
        <time><beats>4</beats><beat-type>4</beat-type></time>
        <clef><sign>G</sign><line>2</line></clef>
      </attributes>
      <note><pitch><step>C</step><octave>4</octave></pitch><duration>1</duration><type>quarter</type></note>
      <note><pitch><step>D</step><octave>4</octave></pitch><duration>1</duration><type>quarter</type></note>
      <note><pitch><step>E</step><octave>4</octave></pitch><duration>1</duration><type>quarter</type></note>
      <note><pitch><step>F</step><octave>4</octave></pitch><duration>1</duration><type>quarter</type></note>
    </measure>
    <measure number="62">
      <attributes>
        <divisions>1</divisions>
        <key><fifths>0</fifths></key>
        <time><beats>4</beats><beat-type>4</beat-type></time>
        <clef><sign>G</sign><line>2</line></clef>
      </attributes>
      <note><pitch><step>C</step><octave>4</octave></pitch><duration>1</duration><type>quarter</type></note>
      <note><pitch><step>D</step><octave>4</octave></pitch><duration>1</duration><type>quarter</type></note>
      <note><pitch><step>E</step><octave>4</octave></pitch><duration>1</duration><type>quarter</type></note>
      <note><pitch><step>F</step><octave>4</octave></pitch><duration>1</duration><type>quarter</type></note>
    </measure>
    <measure number="63">
      <attributes>
        <divisions>1</divisions>
        <key><fifths>0</fifths></key>
        <time><beats>4</beats><beat-type>4</beat-type></time>
        <clef><sign>G</sign><line>2</line></clef>
      </attributes>
      <note><pitch><step>C</step><octave>4</octave></pitch><duration>1</duration><type>quarter</type></note>
      <note><pitch><step>D</step><octave>4</octave></pitch><duration>1</duration><type>quarter</type></note>
      <note><pitch><step>E</step><octave>4</octave></pitch><duration>1</duration><type>quarter</type></note>
      <note><pitch><step>F</step><octave>4</octave></pitch><duration>1</duration><type>quarter</type></note>
    </measure>
    <measure number="64">
      <attributes>
        <divisions>1</divisions>
        <key><fifths>0</fifths></key>
        <time><beats>4</beats><beat-type>4</beat-type></time>
        <clef><sign>G</sign><line>2</line></clef>
      </attributes>
      <note><pitch><step>C</step><octave>4</octave></pitch><duration>1</duration><type>quarter</type></note>
      <note><pitch><step>D</step><octave>4</octave></pitch><duration>1</duration><type>quarter</type></note>
      <note><pitch><step>E</step><octave>4</octave></pitch><duration>1</duration><type>quarter</type></note>
      <note><pitch><step>F</step><octave>4</octave></pitch><duration>1</duration><type>quarter</type></note>
    </measure>
    <measure number="65">
      <attributes>
        <divisions>1</divisions>
        <key><fifths>0</fifths></key>
        <time><beats>4</beats><beat-type>4</beat-type></time>
        <clef><sign>G</sign><line>2</line></clef>
      </attributes>
      <note><pitch><step>C</step><octave>4</octave></pitch><duration>1</duration><type>quarter</type></note>
      <note><pitch><step>D</step><octave>4</octave></pitch><duration>1</duration><type>quarter</type></note>
      <note><pitch><step>E</step><octave>4</octave></pitch><duration>1</duration><type>quarter</type></note>
      <note><pitch><step>F</step><octave>4</octave></pitch><duration>1</duration><type>quarter</type></note>
    </measure>
    <measure number="66">
      <attributes>
        <divisions>1</divisions>
        <key><fifths>0</fifths></key>
        <time><beats>4</beats><beat-type>4</beat-type></time>
        <clef><sign>G</sign><line>2</line></clef>
      </attributes>
      <note><pitch><step>C</step><octave>4</octave></pitch><duration>1</duration><type>quarter</type></note>
      <note><pitch><step>D</step><octave>4</octave></pitch><duration>1</duration><type>quarter</type></note>
      <note><pitch><step>E</step><octave>4</octave></pitch><duration>1</duration><type>quarter</type></note>
      <note><pitch><step>F</step><octave>4</octave></pitch><duration>1</duration><type>quarter</type></note>
    </measure>
    <measure number="67">
      <attributes>
        <divisions>1</divisions>
        <key><fifths>0</fifths></key>
        <time><beats>4</beats><beat-type>4</beat-type></time>
        <clef><sign>G</sign><line>2</line></clef>
      </attributes>
      <note><pitch><step>C</step><octave>4</octave></pitch><duration>1</duration><type>quarter</type></note>
      <note><pitch><step>D</step><octave>4</octave></pitch><duration>1</duration><type>quarter</type></note>
      <note><pitch><step>E</step><octave>4</octave></pitch><duration>1</duration><type>quarter</type></note>
      <note><pitch><step>F</step><octave>4</octave></pitch><duration>1</duration><type>quarter</type></note>
    </measure>
    <measure number="68">
      <attributes>
        <divisions>1</divisions>
        <key><fifths>0</fifths></key>
        <time><beats>4</beats><beat-type>4</beat-type></time>
        <clef><sign>G</sign><line>2</line></clef>
      </attributes>
      <note><pitch><step>C</step><octave>4</octave></pitch><duration>1</duration><type>quarter</type></note>
      <note><pitch><step>D</step><octave>4</octave></pitch><duration>1</duration><type>quarter</type></note>
      <note><pitch><step>E</step><octave>4</octave></pitch><duration>1</duration><type>quarter</type></note>
      <note><pitch><step>F</step><octave>4</octave></pitch><duration>1</duration><type>quarter</type></note>
    </measure>
    <measure number="69">
      <attributes>
        <divisions>1</divisions>
        <key><fifths>0</fifths></key>
        <time><beats>4</beats><beat-type>4</beat-type></time>
        <clef><sign>G</sign><line>2</line></clef>
      </attributes>
      <note><pitch><step>C</step><octave>4</octave></pitch><duration>1</duration><type>quarter</type></note>
      <note><pitch><step>D</step><octave>4</octave></pitch><duration>1</duration><type>quarter</type></note>
      <note><pitch><step>E</step><octave>4</octave></pitch><duration>1</duration><type>quarter</type></note>
      <note><pitch><step>F</step><octave>4</octave></pitch><duration>1</duration><type>quarter</type></note>
    </measure>
    <measure number="70">
      <attributes>
        <divisions>1</divisions>
        <key><fifths>0</fifths></key>
        <time><beats>4</beats><beat-type>4</beat-type></time>
        <clef><sign>G</sign><line>2</line></clef>
      </attributes>
      <note><pitch><step>C</step><octave>4</octave></pitch><duration>1</duration><type>quarter</type></note>
      <note><pitch><step>D</step><octave>4</octave></pitch><duration>1</duration><type>quarter</type></note>
      <note><pitch><step>E</step><octave>4</octave></pitch><duration>1</duration><type>quarter</type></note>
      <note><pitch><step>F</step><octave>4</octave></pitch><duration>1</duration><type>quarter</type></note>
    </measure>
    <measure number="71">
      <attributes>
        <divisions>1</divisions>
        <key><fifths>0</fifths></key>
        <time><beats>4</beats><beat-type>4</beat-type></time>
        <clef><sign>G</sign><line>2</line></clef>
      </attributes>
      <note><pitch><step>C</step><octave>4</octave></pitch><duration>1</duration><type>quarter</type></note>
      <note><pitch><step>D</step><octave>4</octave></pitch><duration>1</duration><type>quarter</type></note>
      <note><pitch><step>E</step><octave>4</octave></pitch><duration>1</duration><type>quarter</type></note>
      <note><pitch><step>F</step><octave>4</octave></pitch><duration>1</duration><type>quarter</type></note>
    </measure>
    <measure number="72">
      <attributes>
        <divisions>1</divisions>
        <key><fifths>0</fifths></key>
        <time><beats>4</beats><beat-type>4</beat-type></time>
        <clef><sign>G</sign><line>2</line></clef>
      </attributes>
      <note><pitch><step>C</step><octave>4</octave></pitch><duration>1</duration><type>quarter</type></note>
      <note><pitch><step>D</step><octave>4</octave></pitch><duration>1</duration><type>quarter</type></note>
      <note><pitch><step>E</step><octave>4</octave></pitch><duration>1</duration><type>quarter</type></note>
      <note><pitch><step>F</step><octave>4</octave></pitch><duration>1</duration><type>quarter</type></note>
    </measure>
    <measure number="73">
      <attributes>
        <divisions>1</divisions>
        <key><fifths>0</fifths></key>
        <time><beats>4</beats><beat-type>4</beat-type></time>
        <clef><sign>G</sign><line>2</line></clef>
      </attributes>
      <note><pitch><step>C</step><octave>4</octave></pitch><duration>1</duration><type>quarter</type></note>
      <note><pitch><step>D</step><octave>4</octave></pitch><duration>1</duration><type>quarter</type></note>
      <note><pitch><step>E</step><octave>4</octave></pitch><duration>1</duration><type>quarter</type></note>
      <note><pitch><step>F</step><octave>4</octave></pitch><duration>1</duration><type>quarter</type></note>
    </measure>
  </part>
</score-partwise>